<svg xmlns="http://www.w3.org/2000/svg" xmlns:xlink="http://www.w3.org/1999/xlink" width="500" zoomAndPan="magnify" viewBox="0 0 375 374.999991" height="500" preserveAspectRatio="xMidYMid meet" version="1.0"><defs><clipPath id="3a5cf24bec"><path d="M 192 171 L 337.289062 171 L 337.289062 301 L 192 301 Z M 192 171 " clip-rule="nonzero"/></clipPath><clipPath id="41fb817d21"><path d="M 44.039062 37.5 L 215 37.5 L 215 329.921875 L 44.039062 329.921875 Z M 44.039062 37.5 " clip-rule="nonzero"/></clipPath></defs><rect x="-37.5" width="450" fill="#ffffff" y="-37.499999" height="449.999989" fill-opacity="1"/><rect x="-37.5" width="450" fill="#1677fe" y="-37.499999" height="449.999989" fill-opacity="1"/><g clip-path="url(#3a5cf24bec)"><path fill="#ffffff" d="M 192.929688 237.558594 C 195.898438 234.855469 198.53125 231.949219 200.945312 228.875 C 203.359375 225.804688 205.574219 222.589844 207.773438 219.324219 C 209.96875 216.058594 212.15625 212.746094 214.5 209.472656 C 215.6875 207.847656 216.894531 206.222656 218.179688 204.632812 C 218.828125 203.84375 219.464844 203.046875 220.152344 202.28125 C 220.832031 201.511719 221.488281 200.722656 222.203125 199.984375 C 227.78125 193.957031 234.1875 188.671875 241.230469 184.398438 C 244.75 182.257812 248.40625 180.332031 252.195312 178.695312 C 255.980469 177.054688 259.886719 175.671875 263.867188 174.566406 C 279.808594 170.167969 296.933594 170.28125 312.832031 174.867188 C 313.324219 174.992188 313.847656 175.175781 314.355469 175.339844 L 315.894531 175.847656 C 316.40625 176.027344 316.90625 176.25 317.410156 176.449219 C 317.914062 176.660156 318.425781 176.84375 318.917969 177.078125 L 321.132812 178.167969 C 321.375 178.296875 321.609375 178.441406 321.847656 178.582031 L 323.277344 179.417969 C 323.515625 179.554688 323.746094 179.714844 323.972656 179.875 L 324.65625 180.351562 C 326.503906 181.589844 328.164062 183.128906 329.730469 184.746094 L 330.828125 186.039062 L 331.371094 186.691406 C 331.539062 186.917969 331.703125 187.15625 331.867188 187.386719 L 332.835938 188.785156 C 333.140625 189.265625 333.40625 189.765625 333.691406 190.257812 C 334.289062 191.226562 334.703125 192.285156 335.175781 193.316406 C 335.296875 193.570312 335.394531 193.835938 335.480469 194.105469 L 335.757812 194.90625 L 336.03125 195.707031 C 336.121094 195.976562 336.21875 196.242188 336.277344 196.515625 L 336.679688 198.152344 C 336.742188 198.425781 336.816406 198.695312 336.871094 198.972656 L 337 199.796875 L 337.25 201.449219 C 337.328125 202 337.335938 202.554688 337.382812 203.105469 C 337.414062 203.65625 337.46875 204.207031 337.476562 204.757812 L 337.457031 206.398438 C 337.453125 207.503906 337.386719 208.570312 337.28125 209.625 C 337.082031 211.742188 336.769531 213.8125 336.390625 215.839844 C 335.648438 219.886719 334.699219 223.765625 333.953125 227.550781 C 333.203125 231.3125 332.671875 235.152344 332.195312 239.054688 C 331.238281 246.847656 330.511719 254.917969 328.601562 263 C 327.652344 267.035156 326.386719 271.058594 324.675781 274.960938 C 323.816406 276.910156 322.828125 278.820312 321.710938 280.671875 L 321.296875 281.367188 L 320.851562 282.046875 C 320.550781 282.5 320.265625 282.957031 319.941406 283.402344 C 319.316406 284.300781 318.636719 285.164062 317.941406 286.011719 C 315.136719 289.382812 311.746094 292.320312 307.855469 294.558594 C 305.914062 295.671875 303.84375 296.601562 301.644531 297.296875 C 299.457031 297.992188 297.1875 298.40625 294.980469 298.589844 C 290.550781 298.949219 286.4375 298.5625 282.597656 298.421875 C 282.125 298.40625 281.628906 298.382812 281.171875 298.375 C 280.714844 298.371094 280.257812 298.355469 279.796875 298.359375 C 278.871094 298.359375 277.941406 298.382812 277.003906 298.425781 C 275.128906 298.511719 273.222656 298.679688 271.296875 298.886719 C 267.433594 299.289062 263.472656 299.867188 259.351562 300.164062 C 255.035156 300.46875 250.734375 300.128906 246.644531 299.429688 C 242.546875 298.734375 238.632812 297.753906 234.816406 296.816406 C 231.042969 295.867188 227.1875 294.992188 223.375 294.105469 C 219.550781 293.234375 215.730469 292.429688 211.863281 291.742188 C 209.929688 291.410156 207.984375 291.09375 206.023438 290.820312 C 204.0625 290.554688 202.082031 290.324219 200.074219 290.101562 C 215.878906 286.121094 232.765625 289.871094 247.691406 292.570312 C 251.4375 293.085938 255.113281 293.238281 258.714844 292.871094 C 262.507812 292.476562 266.398438 291.867188 270.417969 291.355469 C 272.429688 291.105469 274.480469 290.882812 276.566406 290.742188 C 277.605469 290.671875 278.664062 290.628906 279.722656 290.609375 C 280.25 290.589844 280.789062 290.609375 281.320312 290.609375 C 281.855469 290.613281 282.351562 290.632812 282.871094 290.644531 C 286.957031 290.777344 290.789062 291.074219 294.28125 290.75 C 296.027344 290.585938 297.683594 290.265625 299.28125 289.769531 C 300.863281 289.273438 302.445312 288.582031 303.941406 287.722656 C 306.945312 286.011719 309.652344 283.679688 311.957031 280.980469 C 312.523438 280.300781 313.085938 279.609375 313.597656 278.882812 C 313.867188 278.53125 314.105469 278.148438 314.359375 277.777344 L 314.734375 277.214844 L 315.089844 276.636719 C 316.039062 275.097656 316.898438 273.488281 317.65625 271.8125 C 319.167969 268.460938 320.339844 264.894531 321.246094 261.21875 C 323.082031 253.855469 323.859375 246.0625 324.894531 238.121094 C 325.414062 234.152344 326.003906 230.125 326.832031 226.109375 C 327.65625 222.109375 328.632812 218.285156 329.339844 214.527344 C 329.6875 212.652344 329.96875 210.792969 330.136719 208.957031 C 330.230469 208.039062 330.285156 207.121094 330.28125 206.242188 L 330.300781 204.910156 C 330.292969 204.464844 330.246094 204.03125 330.21875 203.59375 C 330.179688 203.15625 330.179688 202.710938 330.117188 202.28125 L 329.917969 200.992188 L 329.824219 200.347656 C 329.78125 200.136719 329.71875 199.925781 329.671875 199.71875 L 329.363281 198.464844 C 329.324219 198.25 329.242188 198.050781 329.171875 197.847656 L 328.757812 196.636719 C 328.691406 196.429688 328.625 196.230469 328.527344 196.039062 C 328.160156 195.273438 327.867188 194.464844 327.40625 193.75 C 327.195312 193.382812 327 193.003906 326.773438 192.644531 L 326.039062 191.601562 C 325.917969 191.429688 325.800781 191.25 325.671875 191.078125 L 325.257812 190.59375 L 324.433594 189.617188 C 323.230469 188.398438 321.976562 187.210938 320.515625 186.242188 L 319.980469 185.867188 C 319.804688 185.738281 319.628906 185.613281 319.433594 185.507812 L 318.292969 184.839844 C 318.101562 184.730469 317.914062 184.609375 317.71875 184.507812 L 317.121094 184.21875 L 315.925781 183.628906 C 315.523438 183.4375 315.097656 183.289062 314.6875 183.117188 C 314.269531 182.953125 313.859375 182.769531 313.433594 182.621094 L 312.144531 182.203125 C 311.710938 182.0625 311.300781 181.910156 310.828125 181.796875 C 303.519531 179.699219 295.90625 178.632812 288.296875 178.59375 C 284.488281 178.578125 280.679688 178.785156 276.902344 179.261719 C 273.125 179.734375 269.386719 180.476562 265.707031 181.433594 C 262.027344 182.402344 258.417969 183.628906 254.898438 185.09375 C 251.382812 186.558594 247.945312 188.238281 244.640625 190.152344 C 241.328125 192.058594 238.164062 194.214844 235.128906 196.542969 C 232.097656 198.875 229.214844 201.410156 226.523438 204.136719 C 223.832031 206.855469 221.34375 209.789062 218.878906 212.835938 C 216.398438 215.867188 213.957031 219.003906 211.347656 222.058594 C 208.742188 225.109375 205.988281 228.101562 202.941406 230.792969 C 199.917969 233.476562 196.578125 235.871094 192.929688 237.558594 Z M 192.929688 237.558594 " fill-opacity="1" fill-rule="nonzero"/></g><path fill="#ffffff" d="M 99.179688 285.339844 C 104.046875 281.960938 108.261719 277.925781 111.996094 273.5 C 112.457031 272.945312 112.929688 272.394531 113.386719 271.835938 L 114.734375 270.132812 C 115.609375 268.976562 116.476562 267.816406 117.324219 266.640625 C 117.753906 266.058594 118.160156 265.453125 118.578125 264.863281 C 118.996094 264.273438 119.410156 263.671875 119.816406 263.070312 C 120.226562 262.46875 120.632812 261.867188 121.027344 261.257812 C 121.429688 260.648438 121.839844 260.050781 122.234375 259.433594 C 123.828125 256.996094 125.394531 254.523438 126.984375 252.039062 C 128.574219 249.5625 130.179688 247.074219 131.84375 244.601562 C 135.164062 239.664062 138.703125 234.75 142.90625 230.28125 C 144.996094 228.042969 147.234375 225.902344 149.648438 223.941406 L 152.4375 221.808594 C 152.746094 221.566406 153.082031 221.371094 153.40625 221.152344 C 154.714844 220.304688 155.992188 219.398438 157.378906 218.679688 C 162.8125 215.609375 168.695312 213.351562 174.792969 212.039062 C 180.886719 210.710938 187.1875 210.347656 193.414062 210.902344 C 199.640625 211.453125 205.804688 212.980469 211.566406 215.496094 L 208.738281 222.074219 C 198.574219 217.902344 187.109375 216.890625 176.238281 219.035156 C 170.8125 220.140625 165.523438 221.96875 160.648438 224.589844 C 159.398438 225.191406 158.261719 225.980469 157.066406 226.679688 C 156.777344 226.867188 156.464844 227.023438 156.191406 227.230469 L 155.34375 227.832031 L 153.65625 229.035156 C 151.4375 230.710938 149.34375 232.578125 147.34375 234.570312 C 145.347656 236.566406 143.449219 238.691406 141.605469 240.890625 C 139.769531 243.09375 138.007812 245.390625 136.273438 247.726562 C 132.808594 252.40625 129.511719 257.285156 125.910156 262.027344 C 122.3125 266.765625 118.441406 271.375 114.035156 275.460938 C 109.625 279.515625 104.660156 283.066406 99.179688 285.339844 Z M 99.179688 285.339844 " fill-opacity="1" fill-rule="nonzero"/><g clip-path="url(#41fb817d21)"><path fill="#ffffff" d="M 212.03125 300.816406 C 207.507812 305.261719 202.101562 308.835938 196.371094 311.714844 C 190.628906 314.585938 184.53125 316.722656 178.34375 318.34375 C 172.152344 319.96875 165.855469 321.027344 159.578125 321.890625 C 153.292969 322.75 147.007812 323.394531 140.753906 324 L 138.453125 324.230469 C 137.703125 324.3125 136.945312 324.402344 136.1875 324.5 C 134.664062 324.695312 133.132812 324.917969 131.597656 325.144531 L 122.3125 326.539062 C 116.089844 327.476562 109.816406 328.351562 103.480469 328.976562 C 97.140625 329.605469 90.734375 329.949219 84.246094 329.78125 C 81.003906 329.691406 77.738281 329.457031 74.464844 329.007812 C 71.191406 328.546875 67.898438 327.878906 64.648438 326.804688 C 61.40625 325.746094 58.183594 324.285156 55.230469 322.21875 C 52.28125 320.171875 49.625 317.472656 47.734375 314.292969 C 47.480469 313.90625 47.28125 313.492188 47.054688 313.089844 C 46.828125 312.695312 46.636719 312.261719 46.449219 311.828125 C 46.257812 311.398438 46.0625 310.96875 45.882812 310.535156 L 45.433594 309.203125 L 45.21875 308.535156 C 45.160156 308.3125 45.105469 308.085938 45.050781 307.859375 L 44.738281 306.503906 C 44.65625 306.054688 44.597656 305.601562 44.53125 305.148438 C 44.460938 304.699219 44.394531 304.246094 44.375 303.800781 C 44.070312 300.203125 44.382812 296.742188 44.929688 293.484375 C 45.46875 290.21875 46.207031 287.089844 46.882812 284.070312 C 47.046875 283.316406 47.21875 282.558594 47.371094 281.816406 C 47.535156 281.070312 47.667969 280.332031 47.796875 279.59375 L 48.191406 277.375 C 48.308594 276.628906 48.402344 275.878906 48.507812 275.132812 C 48.9375 272.144531 49.167969 269.105469 49.375 266.058594 C 49.53125 262.996094 49.644531 259.925781 49.671875 256.824219 C 49.761719 250.625 49.65625 244.355469 49.761719 238.007812 C 49.871094 231.664062 50.148438 225.230469 51.066406 218.800781 C 51.953125 212.367188 53.457031 206.070312 55.289062 199.929688 C 57.125 193.789062 59.304688 187.796875 61.605469 181.902344 C 66.214844 170.113281 71.332031 158.691406 75.5 147.054688 C 79.648438 135.46875 82.683594 123.265625 87 111.238281 L 87.839844 108.988281 L 88.257812 107.867188 L 88.703125 106.746094 L 89.59375 104.511719 L 90.550781 102.292969 L 91.027344 101.183594 C 91.191406 100.8125 91.367188 100.449219 91.535156 100.082031 L 92.5625 97.886719 C 92.917969 97.15625 93.296875 96.441406 93.664062 95.714844 C 94.03125 94.996094 94.390625 94.269531 94.800781 93.566406 L 95.992188 91.4375 C 96.390625 90.726562 96.835938 90.042969 97.257812 89.34375 L 97.902344 88.304688 C 98.011719 88.125 98.101562 87.96875 98.230469 87.773438 L 98.648438 87.167969 C 99.21875 86.382812 99.828125 85.648438 100.464844 84.996094 C 101.738281 83.660156 103.085938 82.566406 104.40625 81.558594 C 105.730469 80.550781 107.03125 79.648438 108.25 78.75 L 137.828125 55.675781 L 145.246094 49.890625 L 148.953125 47 C 150.1875 46.039062 151.417969 45.066406 152.71875 44.085938 C 155.316406 42.148438 158.132812 40.207031 161.488281 38.863281 C 163.160156 38.195312 164.972656 37.699219 166.859375 37.503906 C 167.328125 37.453125 167.808594 37.441406 168.28125 37.414062 C 168.757812 37.410156 169.234375 37.429688 169.710938 37.441406 C 170.179688 37.484375 170.652344 37.523438 171.117188 37.585938 C 171.578125 37.667969 172.046875 37.722656 172.492188 37.832031 C 174.308594 38.222656 176.003906 38.851562 177.582031 39.585938 C 179.160156 40.324219 180.628906 41.171875 182.027344 42.054688 C 183.425781 42.9375 184.75 43.859375 186.042969 44.761719 L 189.894531 47.457031 L 205.3125 58.234375 L 209.164062 60.929688 L 210.128906 61.605469 L 210.609375 61.941406 L 211.152344 62.335938 C 211.53125 62.617188 211.933594 62.933594 212.34375 63.332031 C 212.757812 63.730469 213.183594 64.210938 213.5625 64.847656 C 213.9375 65.476562 214.242188 66.28125 214.324219 67.125 C 214.414062 67.976562 214.277344 68.789062 214.070312 69.4375 C 213.863281 70.089844 213.597656 70.613281 213.34375 71.058594 C 213.085938 71.515625 212.855469 71.863281 212.632812 72.203125 C 211.730469 73.585938 210.761719 74.9375 209.722656 76.246094 C 207.632812 78.84375 205.226562 81.273438 202.429688 83.289062 C 201.03125 84.296875 199.539062 85.203125 197.953125 85.945312 C 197.15625 86.3125 196.351562 86.664062 195.519531 86.949219 C 195.109375 87.101562 194.699219 87.253906 194.253906 87.367188 C 193.8125 87.484375 193.390625 87.625 192.933594 87.71875 C 191.148438 88.140625 189.125 88.261719 187.167969 87.910156 C 186.683594 87.816406 186.207031 87.691406 185.730469 87.570312 C 185.273438 87.414062 184.820312 87.25 184.375 87.082031 C 183.949219 86.886719 183.519531 86.699219 183.109375 86.496094 L 181.941406 85.832031 C 180.433594 84.921875 179.15625 83.910156 177.917969 82.921875 L 174.246094 79.929688 C 173.59375 79.371094 172.898438 78.746094 172.28125 77.960938 C 171.972656 77.570312 171.675781 77.140625 171.441406 76.683594 L 171.121094 76.003906 C 171.007812 75.777344 170.960938 75.554688 170.875 75.332031 C 170.570312 74.4375 170.414062 73.578125 170.296875 72.730469 C 170.195312 71.886719 170.132812 71.058594 170.121094 70.242188 C 170.105469 69.832031 170.101562 69.425781 170.113281 69.023438 C 170.117188 68.617188 170.132812 68.214844 170.148438 67.816406 C 170.179688 67.011719 170.21875 66.222656 170.28125 65.429688 C 170.394531 63.847656 170.550781 62.289062 170.625 60.695312 C 171.117188 62.214844 171.429688 63.789062 171.75 65.332031 L 172.222656 67.636719 C 172.382812 68.398438 172.558594 69.152344 172.746094 69.886719 C 173.125 71.347656 173.566406 72.796875 174.203125 73.90625 C 174.355469 74.195312 174.535156 74.417969 174.699219 74.652344 C 174.863281 74.867188 175.054688 75.050781 175.273438 75.242188 C 175.710938 75.621094 176.242188 75.984375 176.855469 76.351562 L 178.847656 77.546875 C 179.53125 77.957031 180.203125 78.382812 180.855469 78.792969 C 182.171875 79.621094 183.449219 80.4375 184.660156 81.09375 L 185.566406 81.542969 L 186.441406 81.921875 L 187.304688 82.210938 C 187.589844 82.265625 187.875 82.351562 188.15625 82.410156 C 189.289062 82.605469 190.460938 82.574219 191.726562 82.277344 C 192.039062 82.214844 192.359375 82.105469 192.679688 82.023438 C 192.996094 81.949219 193.316406 81.824219 193.644531 81.707031 C 194.292969 81.484375 194.929688 81.210938 195.554688 80.921875 C 196.808594 80.324219 198 79.585938 199.136719 78.753906 C 201.414062 77.082031 203.457031 75.003906 205.269531 72.707031 C 206.175781 71.554688 207.023438 70.347656 207.820312 69.097656 C 208.253906 68.449219 208.542969 67.921875 208.589844 67.726562 C 208.617188 67.625 208.597656 67.648438 208.601562 67.722656 C 208.601562 67.78125 208.628906 67.835938 208.605469 67.792969 C 208.570312 67.707031 208.230469 67.347656 207.722656 66.992188 L 207.3125 66.699219 L 205.859375 65.703125 L 201.984375 63.042969 L 186.480469 52.390625 L 182.601562 49.730469 C 181.316406 48.847656 180.058594 47.988281 178.796875 47.207031 C 176.289062 45.644531 173.738281 44.378906 171.222656 43.859375 C 169.96875 43.59375 168.738281 43.527344 167.507812 43.671875 C 166.277344 43.808594 165.039062 44.148438 163.804688 44.652344 C 161.332031 45.660156 158.921875 47.296875 156.523438 49.128906 C 155.328125 50.042969 154.105469 51.023438 152.875 52 L 149.191406 54.921875 L 141.824219 60.769531 L 127.089844 72.460938 L 119.71875 78.304688 L 116.03125 81.222656 L 114.1875 82.679688 L 113.234375 83.429688 C 112.898438 83.695312 112.574219 83.929688 112.246094 84.179688 C 110.945312 85.144531 109.671875 86.039062 108.507812 86.9375 C 107.34375 87.839844 106.261719 88.742188 105.378906 89.6875 C 104.921875 90.15625 104.53125 90.640625 104.1875 91.121094 L 103.9375 91.488281 C 103.847656 91.621094 103.746094 91.800781 103.648438 91.957031 L 103.0625 92.921875 C 102.679688 93.566406 102.269531 94.195312 101.90625 94.855469 L 100.8125 96.835938 C 100.4375 97.492188 100.105469 98.171875 99.765625 98.847656 C 99.429688 99.527344 99.082031 100.195312 98.75 100.878906 L 97.796875 102.949219 C 97.640625 103.296875 97.476562 103.636719 97.324219 103.988281 L 96.878906 105.039062 L 95.988281 107.148438 L 95.148438 109.28125 L 94.730469 110.347656 L 93.546875 113.59375 C 91.503906 119.398438 89.699219 125.339844 87.90625 131.347656 C 86.101562 137.351562 84.296875 143.417969 82.15625 149.4375 C 77.886719 161.433594 72.769531 172.929688 68.28125 184.511719 C 66.039062 190.304688 63.953125 196.117188 62.21875 201.996094 C 60.488281 207.875 59.09375 213.820312 58.289062 219.816406 C 57.453125 225.804688 57.203125 231.933594 57.117188 238.121094 C 57.035156 244.3125 57.160156 250.582031 57.09375 256.925781 C 57.074219 260.09375 56.972656 263.289062 56.820312 266.488281 C 56.617188 269.695312 56.382812 272.914062 55.933594 276.136719 C 55.820312 276.945312 55.722656 277.75 55.601562 278.554688 L 55.179688 280.964844 C 55.042969 281.773438 54.898438 282.574219 54.726562 283.359375 C 54.566406 284.15625 54.398438 284.929688 54.230469 285.703125 C 53.546875 288.804688 52.863281 291.785156 52.390625 294.710938 C 51.910156 297.628906 51.699219 300.46875 51.933594 303.125 C 51.949219 303.464844 52 303.785156 52.050781 304.109375 C 52.105469 304.429688 52.144531 304.757812 52.203125 305.078125 L 52.425781 306.011719 C 52.460938 306.167969 52.496094 306.324219 52.535156 306.480469 L 52.6875 306.925781 L 52.980469 307.824219 L 53.363281 308.683594 C 53.484375 308.96875 53.605469 309.257812 53.773438 309.542969 C 53.929688 309.824219 54.066406 310.121094 54.246094 310.386719 C 56.867188 314.839844 61.589844 317.871094 67.015625 319.625 C 72.449219 321.398438 78.445312 322.125 84.476562 322.339844 C 90.527344 322.550781 96.664062 322.238281 102.8125 321.722656 C 108.964844 321.199219 115.125 320.425781 121.316406 319.585938 L 130.652344 318.316406 C 132.21875 318.113281 133.792969 317.925781 135.386719 317.75 C 136.183594 317.664062 136.984375 317.582031 137.792969 317.511719 L 140.175781 317.324219 C 146.417969 316.847656 152.621094 316.339844 158.78125 315.625 C 164.9375 314.910156 171.035156 313.972656 177.070312 312.800781 C 183.105469 311.621094 189.066406 310.144531 194.90625 308.199219 C 200.753906 306.257812 206.4375 303.789062 212.03125 300.816406 Z M 212.03125 300.816406 " fill-opacity="1" fill-rule="nonzero"/></g><path fill="#ffffff" d="M 191.5 325.855469 C 183.277344 325.855469 176.117188 323.792969 170.132812 319.683594 L 174.1875 313.78125 C 180.71875 318.261719 189.234375 319.683594 199.488281 318.007812 C 209.222656 316.417969 218.433594 311.964844 226.164062 307.820312 C 228.792969 306.410156 231.460938 304.671875 234.285156 302.828125 C 240.554688 298.738281 247.035156 294.515625 254.234375 293.160156 L 255.558594 300.199219 C 249.753906 301.289062 243.882812 305.121094 238.199219 308.828125 C 235.375 310.667969 232.449219 312.578125 229.550781 314.132812 C 221.300781 318.554688 211.417969 323.316406 200.648438 325.078125 C 197.464844 325.59375 194.414062 325.855469 191.5 325.855469 Z M 191.5 325.855469 " fill-opacity="1" fill-rule="nonzero"/><path fill="#ffffff" d="M 117.183594 122.816406 C 117.542969 121.398438 118.191406 120.007812 119.085938 118.769531 C 119.976562 117.53125 121.082031 116.417969 122.316406 115.480469 C 124.789062 113.589844 127.691406 112.320312 130.6875 111.527344 C 131.4375 111.328125 132.195312 111.152344 132.957031 111.015625 C 133.726562 110.875 134.496094 110.773438 135.246094 110.683594 C 136.757812 110.5 138.253906 110.414062 139.730469 110.34375 C 141.203125 110.289062 142.65625 110.269531 144.082031 110.242188 C 145.507812 110.230469 146.90625 110.207031 148.269531 110.144531 C 149.632812 110.09375 150.964844 110.007812 152.257812 109.855469 C 153.550781 109.699219 154.78125 109.488281 156.03125 109.179688 C 158.527344 108.558594 161.0625 107.636719 163.664062 106.597656 C 166.277344 105.574219 168.964844 104.429688 171.859375 103.457031 C 174.746094 102.484375 177.859375 101.675781 181.1875 101.4375 C 182.839844 101.3125 184.566406 101.351562 186.195312 101.53125 C 187.820312 101.703125 189.347656 102.015625 190.796875 102.316406 C 192.242188 102.625 193.613281 102.9375 194.917969 103.1875 C 196.222656 103.429688 197.460938 103.605469 198.632812 103.667969 C 199.8125 103.726562 200.882812 103.667969 202.023438 103.453125 C 203.152344 103.242188 204.269531 102.902344 205.269531 102.449219 C 205.773438 102.226562 206.234375 101.96875 206.660156 101.695312 C 206.875 101.5625 207.0625 101.414062 207.253906 101.273438 L 207.519531 101.054688 C 207.59375 100.984375 207.648438 100.9375 207.710938 100.875 C 207.960938 100.617188 208.210938 100.285156 208.449219 99.878906 C 208.683594 99.46875 208.898438 98.988281 209.097656 98.457031 C 209.292969 97.933594 209.464844 97.347656 209.625 96.738281 C 209.703125 96.4375 209.761719 96.191406 209.796875 95.988281 C 209.835938 95.789062 209.832031 95.679688 209.839844 95.699219 C 209.84375 95.710938 209.890625 95.925781 209.972656 96.058594 C 210.054688 96.199219 210.085938 96.191406 210 96.113281 C 209.859375 95.945312 209.304688 95.554688 208.835938 95.246094 C 206.894531 93.964844 204.65625 93.21875 202.121094 92.855469 C 200.859375 92.664062 199.539062 92.558594 198.167969 92.496094 L 197.652344 92.472656 L 197.34375 92.460938 L 197 92.4375 C 196.542969 92.40625 196.113281 92.355469 195.683594 92.292969 C 194.835938 92.167969 194.027344 91.992188 193.238281 91.773438 C 191.65625 91.34375 190.144531 90.773438 188.660156 90.027344 C 187.917969 89.652344 187.1875 89.226562 186.464844 88.714844 C 185.742188 88.207031 185.023438 87.628906 184.339844 86.859375 L 188.492188 82.84375 C 188.8125 83.097656 189.238281 83.394531 189.722656 83.660156 C 190.207031 83.925781 190.742188 84.179688 191.300781 84.414062 C 192.414062 84.882812 193.621094 85.265625 194.820312 85.546875 C 195.417969 85.679688 196.015625 85.796875 196.589844 85.867188 C 196.871094 85.902344 197.152344 85.929688 197.414062 85.941406 L 198.398438 85.96875 C 199.894531 86 201.433594 86.078125 203.015625 86.277344 C 206.160156 86.640625 209.542969 87.609375 212.472656 89.386719 C 212.835938 89.613281 213.195312 89.820312 213.5625 90.082031 C 213.742188 90.207031 213.945312 90.359375 214.140625 90.503906 C 214.351562 90.675781 214.550781 90.828125 214.777344 91.046875 C 215.214844 91.453125 215.726562 92 216.144531 92.769531 C 216.570312 93.539062 216.796875 94.460938 216.847656 95.191406 C 216.898438 95.925781 216.84375 96.535156 216.769531 97.042969 C 216.699219 97.546875 216.601562 98.003906 216.511719 98.402344 C 216.332031 99.183594 216.125 99.988281 215.847656 100.8125 C 215.570312 101.636719 215.230469 102.484375 214.78125 103.332031 C 214.328125 104.179688 213.757812 105.039062 213.03125 105.835938 C 212.851562 106.03125 212.648438 106.238281 212.464844 106.410156 L 211.921875 106.898438 C 211.550781 107.203125 211.175781 107.503906 210.792969 107.761719 C 210.027344 108.292969 209.242188 108.75 208.449219 109.136719 C 206.855469 109.914062 205.222656 110.460938 203.542969 110.828125 C 201.878906 111.203125 200.066406 111.363281 198.378906 111.320312 C 196.683594 111.289062 195.074219 111.074219 193.554688 110.816406 C 192.035156 110.554688 190.605469 110.25 189.238281 109.988281 C 187.875 109.71875 186.578125 109.507812 185.351562 109.375 C 184.125 109.242188 182.976562 109.21875 181.765625 109.308594 C 179.363281 109.476562 176.875 110.109375 174.320312 110.917969 C 171.761719 111.746094 169.132812 112.761719 166.382812 113.769531 C 163.617188 114.753906 160.726562 115.738281 157.613281 116.351562 C 156.058594 116.660156 154.449219 116.867188 152.886719 116.96875 C 151.320312 117.054688 149.78125 117.058594 148.277344 117.015625 C 146.769531 116.957031 145.300781 116.84375 143.859375 116.730469 L 139.613281 116.347656 C 138.21875 116.214844 136.847656 116.128906 135.492188 116.070312 C 134.804688 116.042969 134.148438 116.019531 133.488281 116.03125 C 132.828125 116.046875 132.164062 116.066406 131.5 116.113281 C 128.855469 116.320312 126.203125 116.816406 123.722656 117.847656 C 121.238281 118.867188 118.933594 120.457031 117.183594 122.816406 Z M 117.183594 122.816406 " fill-opacity="1" fill-rule="nonzero"/><path fill="#ffffff" d="M 128.890625 249.476562 C 127.871094 245.453125 126.824219 241.386719 125.777344 237.304688 C 122.777344 225.632812 119.675781 213.570312 117.023438 201.851562 C 115.332031 194.363281 113.953125 187.589844 114.273438 180.476562 C 114.558594 174.191406 116.179688 168.195312 117.746094 162.390625 C 118.277344 160.425781 118.828125 158.394531 119.304688 156.414062 C 120.269531 152.429688 121.003906 148.332031 121.71875 144.375 C 123.769531 132.972656 125.890625 121.1875 133.582031 111.160156 L 139.265625 115.523438 C 132.632812 124.167969 130.753906 134.601562 128.765625 145.644531 C 128.035156 149.707031 127.277344 153.90625 126.265625 158.09375 C 125.765625 160.171875 125.203125 162.25 124.660156 164.261719 C 123.125 169.941406 121.671875 175.300781 121.425781 180.796875 C 121.148438 187.019531 122.429688 193.300781 124.007812 200.273438 C 126.636719 211.886719 129.722656 223.898438 132.710938 235.519531 C 133.761719 239.609375 134.8125 243.683594 135.832031 247.71875 Z M 128.890625 249.476562 " fill-opacity="1" fill-rule="nonzero"/></svg>