<?xml version="1.0" standalone="no"?>
<!DOCTYPE svg PUBLIC "-//W3C//DTD SVG 20010904//EN"
 "http://www.w3.org/TR/2001/REC-SVG-20010904/DTD/svg10.dtd">
<svg version="1.0" xmlns="http://www.w3.org/2000/svg"
 width="592.000000pt" height="566.000000pt" viewBox="0 0 592.000000 566.000000"
 preserveAspectRatio="xMidYMid meet">

<g transform="translate(0.000000,566.000000) scale(0.100000,-0.100000)"
fill="#000000" stroke="none">
<path d="M0 2830 l0 -2830 2960 0 2960 0 0 2830 0 2830 -2960 0 -2960 0 0
-2830z m3147 2688 c3 -148 -7 -138 136 -139 67 -1 185 -4 262 -6 77 -3 151 -5
165 -6 14 0 133 3 266 7 l241 7 102 -52 c57 -28 101 -53 98 -55 -2 -2 -145 -4
-318 -4 -452 1 -482 1 -492 -9 -14 -14 -29 -162 -22 -218 3 -28 12 -57 20 -63
9 -7 137 -13 392 -17 391 -6 398 -6 473 1 25 2 73 -2 108 -9 60 -12 64 -12 83
8 15 16 19 35 19 84 0 35 2 63 5 63 3 0 28 -17 55 -37 38 -28 50 -44 50 -63 0
-35 17 -50 59 -50 29 -1 47 -11 91 -50 l55 -49 -87 -2 c-49 -2 -103 -4 -120
-5 -18 -1 -55 1 -83 6 -40 7 -175 21 -220 22 -38 1 -109 -13 -116 -23 -8 -13
-1 -270 8 -279 3 -3 35 -5 71 -6 519 -7 818 -17 830 -26 17 -14 72 -94 72
-104 0 -4 -98 -4 -217 -1 -120 3 -240 3 -268 -1 l-50 -7 -5 -85 c-5 -90 6
-180 24 -192 12 -8 234 -11 518 -8 l187 2 26 -52 c23 -45 25 -56 15 -80 -16
-38 -10 -258 8 -272 11 -10 30 -12 110 -17 23 -1 37 -26 49 -85 l6 -29 -214 8
c-242 10 -272 10 -531 6 -156 -2 -189 -5 -200 -18 -17 -21 -18 -277 -1 -294 7
-7 158 -10 517 -10 402 1 506 -1 506 -11 0 -7 3 -30 6 -50 l7 -38 -127 0
c-113 0 -128 -2 -146 -20 -18 -18 -26 -54 -22 -100 7 -87 10 -129 11 -153 1
-15 12 -38 24 -51 22 -22 30 -23 99 -19 51 3 78 1 83 -7 4 -7 11 -8 18 -1 7 5
29 12 50 16 l37 7 0 -47 0 -47 -32 9 c-18 4 -91 7 -163 6 -71 0 -296 -3 -498
-5 -202 -3 -372 -9 -377 -14 -5 -5 -12 -70 -16 -144 -5 -109 -4 -138 7 -147
16 -13 188 -23 384 -23 225 1 313 -1 342 -9 16 -4 44 -4 63 0 19 4 85 11 147
15 l113 7 0 -24 c0 -13 -3 -34 -6 -47 -7 -23 -8 -23 -153 -20 l-146 3 -30 -63
c-24 -48 -34 -59 -43 -50 -7 7 -12 20 -12 30 0 32 -46 70 -83 67 -18 -1 -52 3
-76 10 -25 7 -68 10 -100 7 -69 -7 -484 -18 -657 -17 -71 0 -141 -2 -157 -5
-39 -8 -92 -86 -82 -122 3 -15 9 -58 12 -97 6 -88 21 -105 94 -111 30 -3 65
-8 79 -13 15 -4 54 -2 95 6 95 19 227 25 264 12 32 -11 48 -51 36 -89 -8 -24
-8 -199 -1 -248 8 -58 18 -62 135 -63 94 0 291 -13 331 -21 33 -7 27 -43 -7
-44 -16 0 -80 -6 -143 -13 -141 -15 -685 -22 -722 -9 -31 11 -47 46 -27 58 7
5 75 12 151 15 101 6 143 12 154 22 12 12 14 43 12 156 l-3 142 -60 14 c-71
15 -266 17 -414 2 -113 -11 -149 -3 -171 39 -8 15 -6 21 9 30 11 6 24 10 28 9
28 -5 64 3 82 19 19 15 22 30 26 123 4 90 2 111 -14 143 -32 62 -34 63 -129
65 -48 1 -91 6 -96 11 -14 14 2 57 23 63 11 2 39 1 63 -3 24 -5 63 -7 88 -5
25 2 137 6 250 10 156 5 211 11 229 22 24 15 24 16 19 151 -5 113 -9 138 -23
148 -12 9 -70 13 -201 14 -101 0 -189 3 -196 5 -8 3 -28 -17 -48 -47 -60 -93
-78 -108 -127 -108 -37 0 -43 3 -49 25 -3 14 -3 42 0 63 9 55 12 171 4 166
-11 -7 -16 20 -7 43 6 16 4 21 -9 19 -21 -3 -27 -23 -13 -40 9 -11 9 -15 -1
-18 -11 -4 -11 -11 0 -41 18 -50 13 -109 -10 -115 -10 -2 -18 -9 -18 -14 0 -5
5 -6 10 -3 9 6 12 -20 13 -150 1 -55 -14 -145 -23 -145 -4 0 -11 -16 -14 -35
-7 -36 -22 -46 -32 -20 -8 20 -44 20 -44 0 0 -8 -4 -15 -9 -15 -5 0 -14 -14
-21 -30 -7 -16 -16 -30 -20 -30 -5 0 -14 -16 -20 -35 -6 -19 -16 -34 -22 -32
-7 1 -22 -17 -35 -41 -15 -26 -32 -42 -43 -42 -12 0 -23 -12 -31 -35 -12 -33
-27 -41 -66 -36 -7 1 -13 -3 -13 -9 0 -5 5 -10 10 -10 6 0 10 -4 10 -9 0 -6
-12 -9 -27 -7 -26 2 -73 -32 -73 -52 0 -19 -128 -122 -158 -128 -23 -4 -36
-14 -42 -30 -5 -13 -16 -24 -25 -24 -8 0 -15 -4 -15 -9 0 -6 -9 -9 -20 -8 -24
2 -24 4 -5 23 8 9 15 23 15 31 0 11 -9 6 -30 -16 -17 -17 -37 -31 -45 -31 -8
0 -15 -5 -15 -11 0 -5 -21 -20 -47 -31 -64 -28 -146 -27 -199 2 -21 12 -50 24
-63 27 -14 2 -30 8 -37 14 -6 5 -14 6 -17 2 -4 -3 -7 -2 -7 4 0 6 -11 14 -25
17 -14 4 -25 13 -25 21 0 8 -6 15 -12 15 -12 0 -81 65 -171 160 -23 25 -48 46
-54 46 -29 2 -33 5 -33 20 0 16 -23 44 -37 44 -4 0 -14 9 -21 21 -7 12 -16 18
-19 15 -7 -7 -33 20 -54 58 -31 56 -69 134 -69 144 0 10 -79 6 -182 -9 -37 -5
-98 -9 -136 -9 -44 0 -73 -5 -80 -13 -14 -18 -21 -152 -10 -221 9 -62 35 -119
50 -110 4 3 3 -6 -3 -20 -7 -14 -19 -28 -28 -32 -42 -18 -536 -21 -629 -4 -72
13 -69 13 -92 -10 -18 -18 -20 -33 -20 -152 0 -73 4 -139 9 -146 7 -11 58 -14
252 -13 294 1 522 -11 543 -28 31 -26 -27 -131 -73 -131 -7 0 -24 11 -36 24
l-22 24 -539 -5 c-310 -3 -543 -9 -549 -15 -5 -5 -12 -45 -14 -90 l-3 -81 -35
54 c-19 30 -54 93 -78 140 l-44 87 37 6 c20 3 118 6 217 6 99 0 187 5 195 10
12 7 15 35 15 145 l0 137 -33 30 c-22 19 -40 27 -50 23 -10 -4 -37 -9 -62 -11
-25 -1 -97 -7 -160 -12 -63 -5 -131 -8 -150 -8 -19 1 -58 3 -87 4 -56 2 -65
10 -77 67 l-6 30 62 3 c91 4 93 8 93 158 0 157 -1 158 -125 150 -47 -3 -91 -2
-98 3 -19 11 -29 111 -11 112 8 0 145 0 304 0 325 1 351 3 366 31 17 31 14
237 -3 254 -15 14 -71 16 -428 15 -124 -1 -234 1 -245 3 -11 3 -23 5 -27 5 -5
1 -8 26 -8 56 l0 55 131 0 c75 0 139 5 151 11 19 10 20 19 17 137 -2 70 -7
135 -11 145 -8 15 -25 17 -134 17 l-126 0 7 48 c4 26 9 49 11 51 2 2 147 4
322 5 254 1 322 4 335 15 14 11 17 35 17 140 0 85 -4 131 -12 139 -9 9 -90 12
-301 12 l-289 0 7 33 c17 74 20 77 79 77 34 0 58 5 65 14 8 10 12 60 10 158
-2 137 -1 146 24 195 15 28 31 54 36 58 6 3 91 6 190 6 99 0 182 3 185 7 3 5
6 67 8 140 3 146 1 153 -57 151 -16 0 -54 -1 -83 0 l-53 1 18 30 c10 17 31 43
46 58 l28 27 431 -2 c306 -2 435 0 445 8 10 9 13 45 13 140 0 70 -3 130 -8
132 -4 3 -142 8 -307 12 -165 4 -301 8 -303 10 -2 1 27 28 64 58 l66 55 439
-5 c241 -3 449 -3 462 1 23 5 24 10 31 131 4 81 3 133 -4 145 -10 19 -24 20
-248 22 l-237 3 106 53 106 52 264 -1 c622 -2 772 0 781 9 6 6 10 58 10 117
l-1 106 52 -3 52 -3 2 -97z m893 -2638 c0 -5 -2 -10 -4 -10 -3 0 -8 5 -11 10
-3 6 -1 10 4 10 6 0 11 -4 11 -10z m-115 -539 c1 -30 -2 -36 -11 -26 -12 11
-8 65 5 65 3 0 6 -17 6 -39z m90 -153 c8 -85 14 -175 13 -199 -3 -71 13 -244
23 -247 5 -2 9 -30 9 -62 0 -32 4 -61 10 -65 5 -3 7 -11 5 -18 -3 -7 -7 -26
-8 -42 -5 -41 -36 -133 -48 -140 -5 -4 -9 -14 -9 -25 0 -15 -45 -105 -80 -160
-5 -8 -21 -35 -36 -60 -45 -76 -84 -111 -84 -75 0 25 -18 17 -34 -17 -20 -38
-20 -52 -2 -67 11 -9 15 -9 19 1 3 10 9 9 22 -4 15 -14 16 -20 6 -32 -11 -13
-8 -15 26 -13 29 2 42 -3 56 -21 16 -19 17 -27 6 -60 -18 -55 -87 -204 -104
-222 -8 -9 -32 -52 -54 -96 -32 -63 -51 -89 -100 -128 -34 -28 -61 -53 -61
-58 0 -17 -294 -308 -311 -308 -11 0 -38 29 -71 77 -43 62 -66 85 -121 118
-58 35 -72 49 -92 93 -26 56 -42 67 -165 107 -55 18 -151 78 -182 112 -30 34
-87 148 -107 213 -13 44 -18 88 -16 135 1 39 -1 75 -5 80 -4 6 -13 35 -20 65
-7 30 -18 62 -25 70 -24 29 -94 245 -105 323 -13 97 -13 200 0 303 5 43 14
144 21 224 6 80 14 151 18 157 10 18 73 -70 95 -132 25 -69 49 -115 60 -115 5
0 7 -3 3 -6 -3 -4 1 -20 9 -36 9 -16 13 -36 10 -44 -3 -8 1 -17 9 -20 8 -4 15
-12 15 -19 0 -6 9 -20 20 -30 11 -10 20 -23 20 -29 0 -11 42 -58 72 -82 26
-20 54 -28 108 -30 79 -3 80 -3 77 -15 -2 -12 9 -20 63 -44 64 -28 94 -31 175
-19 73 10 80 10 91 2 14 -10 36 -7 46 7 4 5 19 11 33 12 22 2 25 -1 20 -18 -9
-29 8 -23 34 12 21 28 26 30 59 23 21 -4 48 -7 62 -7 13 1 32 -7 41 -18 22
-25 33 -24 49 6 18 34 30 32 30 -5 0 -36 26 -41 39 -7 6 16 5 23 -6 27 -10 4
-7 13 15 38 16 17 35 32 42 32 15 0 50 29 50 42 0 4 -7 8 -15 8 -17 0 -18 4
-6 28 57 110 93 200 86 213 -3 4 2 12 10 19 9 7 13 20 10 29 -3 10 4 27 15 39
11 11 20 25 20 30 0 14 25 62 32 62 4 0 10 17 14 38 7 39 74 215 80 209 2 -1
10 -73 19 -159z m1629 -124 c58 -4 106 -10 106 -14 0 -4 -5 -21 -10 -37 l-11
-30 -227 -5 c-273 -7 -396 2 -422 30 -17 18 -16 19 14 31 17 6 94 17 171 22
77 6 154 17 170 24 24 10 37 10 67 -1 20 -7 84 -16 142 -20z m-3579 -51 c19
-28 5 -37 -32 -21 -50 22 -58 49 -13 46 19 -1 36 -11 45 -25z m139 11 c19 -19
20 -28 3 -42 -15 -13 -96 -5 -114 10 -18 15 -16 38 3 38 14 0 14 -3 3 -17 -7
-10 -2 -8 11 5 28 26 72 29 94 6z m3372 -421 c-13 -24 -15 -25 -16 -7 0 11 5
25 12 32 19 19 21 6 4 -25z m-4326 -388 c58 -7 102 -25 97 -39 -6 -18 -68 -56
-93 -56 -16 0 -28 -10 -38 -28 -8 -15 -27 -34 -41 -40 -28 -13 -65 -8 -65 9 0
5 -9 18 -20 29 -17 17 -33 20 -96 20 -83 0 -77 -4 -135 77 l-30 42 188 -4
c103 -3 208 -7 233 -10z m4081 -13 c-20 -38 -45 -49 -119 -51 -55 -2 -80 2
-99 14 -13 9 -22 19 -20 22 18 17 94 32 165 33 76 0 82 -1 73 -18z m-2542
-784 c22 -58 23 -68 7 -68 -17 0 -40 31 -51 68 -5 18 -2 22 15 22 12 0 24 -9
29 -22z m80 -133 c17 -20 31 -40 31 -45 0 -6 6 -10 14 -10 14 0 77 -75 121
-142 l17 -28 -26 0 c-16 0 -29 7 -33 18 -3 9 -22 45 -42 79 -31 52 -39 61 -58
56 -29 -7 -89 30 -108 67 -17 32 -12 40 26 40 18 0 37 -11 58 -35z"/>
<path d="M2413 5269 c-22 -8 -23 -13 -23 -143 0 -93 4 -137 12 -142 6 -4 75
-9 152 -10 163 -4 251 -20 233 -45 -11 -14 -34 -21 -167 -50 -25 -5 -182 -12
-350 -15 -192 -4 -310 -10 -318 -17 -18 -15 -9 -266 10 -279 7 -4 62 -8 121
-8 123 0 167 -14 167 -54 0 -16 -8 -27 -27 -35 -19 -7 -204 -12 -542 -16 -283
-3 -517 -8 -520 -11 -3 -3 -5 -65 -4 -137 1 -91 6 -134 15 -143 10 -11 114
-14 492 -14 413 -1 482 -4 502 -17 29 -18 31 -44 6 -66 -14 -13 -39 -17 -109
-17 -131 0 -132 -1 -135 -163 -1 -73 3 -132 8 -137 6 -6 55 -13 109 -16 108
-7 135 -19 135 -60 0 -46 -14 -48 -535 -52 -269 -2 -493 -7 -498 -11 -4 -4 -8
-66 -9 -138 -2 -117 0 -134 17 -153 19 -21 23 -21 459 -20 243 1 457 -1 476
-4 19 -3 53 -8 74 -12 22 -4 48 -16 57 -28 17 -20 17 -20 29 24 9 31 10 85 6
175 -4 81 -2 149 4 180 18 80 23 164 12 178 -5 6 -13 37 -17 68 -6 50 -2 73
34 186 47 151 82 219 124 242 16 9 50 30 76 46 25 17 63 40 84 53 43 25 188
52 282 52 33 0 88 5 122 10 66 11 212 19 390 22 93 2 115 -1 125 -14 7 -9 31
-24 53 -33 160 -71 229 -112 275 -162 27 -29 52 -67 55 -85 4 -18 13 -42 20
-53 17 -26 35 -114 35 -167 0 -23 -12 -85 -26 -139 -22 -84 -24 -104 -14 -134
6 -19 15 -35 19 -35 14 0 41 -67 50 -125 24 -145 18 -133 63 -129 32 3 39 1
34 -11 -3 -8 -1 -26 4 -40 14 -38 -3 -37 -29 1 -13 19 -28 34 -34 34 -5 0 -3
-7 4 -16 23 -27 39 -86 29 -104 -5 -10 -7 -20 -4 -23 3 -3 1 -14 -5 -25 -9
-16 -7 -21 9 -25 16 -4 22 2 30 33 6 24 31 60 63 94 43 46 59 56 85 56 28 0
35 -6 54 -44 19 -41 25 -45 67 -51 101 -14 310 0 333 23 19 19 17 274 -2 297
-11 14 -29 16 -109 13 -53 -1 -162 -2 -243 0 l-148 2 -6 25 c-3 14 -3 36 0 50
5 21 12 25 40 25 62 0 69 17 64 161 -4 144 -11 159 -67 159 -20 0 -42 5 -49
12 -18 18 -15 65 6 73 9 4 128 10 264 13 135 2 251 8 257 11 12 8 17 269 4
282 -4 4 -132 11 -283 14 -410 8 -478 13 -490 35 -7 13 -4 24 10 43 19 24 23
25 162 26 103 1 147 6 156 15 16 16 18 247 2 277 -9 16 -23 19 -83 21 -40 0
-79 0 -87 -1 -43 -5 -140 -1 -175 7 -23 5 -51 5 -63 1 -12 -5 -96 -9 -185 -10
-153 0 -166 1 -219 24 -30 14 -59 30 -63 36 -12 20 14 40 60 47 25 3 50 12 56
20 18 22 24 235 7 257 -13 17 -45 18 -528 21 -283 2 -525 0 -537 -5z m537
-344 c0 -10 -10 -15 -34 -15 -18 0 -39 7 -46 15 -11 13 -6 15 34 15 34 0 46
-4 46 -15z m80 5 c13 -9 13 -10 0 -9 -8 0 -24 4 -35 9 l-20 9 20 0 c11 0 27
-4 35 -9z m275 0 c-4 -6 -14 -10 -23 -9 -10 2 -27 -1 -39 -5 -15 -5 -30 -2
-45 8 -21 15 -19 16 45 16 45 0 66 -4 62 -10z m702 -1482 c-3 -8 -6 -5 -6 6
-1 11 2 17 5 13 3 -3 4 -12 1 -19z m83 -35 c0 -22 2 -24 15 -13 9 7 18 10 21
7 10 -9 -5 -39 -15 -33 -5 4 -11 1 -13 -6 -9 -25 -28 5 -28 43 0 24 4 38 10
34 6 -3 10 -18 10 -32z"/>
<path d="M845 4032 c-76 -2 -122 -7 -126 -14 -9 -14 -5 -265 3 -274 4 -3 248
-6 544 -6 509 1 539 2 552 19 19 25 12 243 -8 268 -13 16 -47 17 -430 14 -228
-2 -469 -5 -535 -7z"/>
<path d="M4376 4024 c-4 -10 -4 -76 0 -147 6 -105 10 -129 24 -137 9 -5 198
-11 421 -14 222 -3 413 -6 424 -7 58 -6 198 10 211 23 18 17 22 225 5 256 -14
26 -86 32 -381 31 -315 -2 -300 -2 -511 7 -176 7 -186 6 -193 -12z"/>
<path d="M3268 3732 c-9 -10 -13 -10 -19 0 -6 9 -10 8 -15 -5 -5 -15 -9 -15
-22 -5 -13 11 -14 10 -8 -15 3 -15 3 -27 -1 -26 -27 5 -35 -2 -29 -26 4 -14 1
-35 -5 -46 -8 -15 -8 -28 1 -49 9 -22 9 -37 -1 -67 -14 -43 -18 -103 -6 -103
4 0 7 -9 7 -20 0 -29 35 -56 77 -58 21 -2 73 -14 116 -27 80 -26 171 -33 182
-15 3 6 16 10 28 10 39 0 115 33 120 52 3 11 14 18 30 18 31 0 43 16 27 35 -6
8 -9 19 -5 25 4 7 -2 14 -13 17 -24 6 -38 33 -17 33 7 0 17 -4 20 -10 11 -18
27 -11 20 9 -4 14 0 21 14 26 24 7 44 -2 36 -16 -4 -5 -2 -9 3 -9 24 0 18 93
-11 173 -10 29 -78 72 -100 64 -7 -2 -34 7 -61 21 -46 22 -61 24 -204 26 -115
1 -156 -2 -164 -12z m283 -163 c46 -14 108 -63 105 -84 -4 -26 -15 -28 -60
-11 -87 33 -156 37 -233 12 -18 -6 -23 -3 -23 10 0 9 8 23 18 30 16 13 16 13
-1 14 -10 0 -15 5 -12 11 4 6 13 8 21 5 8 -3 14 -1 14 4 0 19 114 25 171 9z
m-263 -31 c-5 -15 -36 -19 -45 -6 -3 7 -1 8 5 4 7 -4 12 -2 12 3 0 6 7 11 16
11 9 0 14 -5 12 -12z m12 -82 c0 -2 -12 -12 -27 -21 l-28 -18 19 21 c17 20 36
29 36 18z m90 -42 c6 -14 10 -27 10 -30 0 -8 -55 -4 -70 6 -12 7 -12 12 4 29
25 28 44 26 56 -5z m-165 -28 c-23 -35 -47 -42 -43 -13 2 14 9 21 20 19 9 -1
19 2 23 8 3 5 8 10 11 10 2 0 -3 -11 -11 -24z m164 -28 c28 -6 51 -16 51 -21
0 -5 9 -7 20 -4 11 3 23 1 26 -4 3 -6 15 -7 26 -3 12 3 39 6 62 6 22 -1 46 4
52 9 9 7 16 5 23 -8 8 -17 5 -20 -27 -23 -20 -3 -84 -5 -142 -5 -82 0 -114 4
-144 18 -21 11 -51 17 -67 15 -27 -4 -39 9 -22 25 10 11 87 8 142 -5z"/>
<path d="M2686 3703 c-1 -2 -42 -4 -90 -5 -83 -2 -92 -4 -159 -42 -41 -24 -77
-52 -84 -66 -6 -14 -15 -58 -19 -97 -6 -70 -6 -73 15 -73 11 0 21 5 21 12 0
21 41 56 60 51 16 -4 17 -9 9 -30 -11 -30 -2 -46 12 -20 6 9 15 14 21 11 6 -4
8 -3 4 4 -10 16 44 73 89 93 48 22 111 24 183 5 28 -8 52 -10 52 -6 0 16 35
17 63 1 31 -18 33 -24 11 -46 -13 -13 -19 -13 -31 -3 -13 10 -108 48 -122 48
-3 0 10 -13 29 -29 19 -16 31 -33 27 -37 -4 -5 -45 -9 -90 -9 -72 -1 -90 -5
-148 -34 -81 -40 -152 -107 -129 -121 15 -10 30 -11 207 -16 97 -2 134 7 104
26 -8 4 3 10 25 13 66 11 59 -6 -18 -45 -29 -14 -62 -30 -73 -34 -19 -7 -19
-8 2 -11 30 -6 128 24 155 47 20 17 21 21 8 30 -13 9 -13 11 0 20 8 5 30 10
48 10 17 0 32 3 32 7 0 4 -15 22 -32 41 -28 29 -29 33 -9 22 19 -10 25 -9 32
1 7 11 12 12 29 1 17 -10 20 -10 20 5 0 10 -7 32 -16 48 -9 17 -25 66 -36 110
-23 92 -40 111 -106 118 -47 5 -90 5 -96 0z m117 -317 c16 -13 15 -14 -10 -19
-33 -6 -38 -3 -30 18 8 18 16 19 40 1z m-195 -34 c2 -7 -6 -12 -17 -12 -21 0
-27 11 -14 24 9 9 26 2 31 -12z"/>
<path d="M4201 3314 c-25 -32 -27 -64 -5 -64 9 0 23 -8 30 -17 16 -23 24 -14
31 36 5 39 -7 71 -27 71 -5 0 -18 -12 -29 -26z"/>
<path d="M3185 3300 c3 -5 8 -10 11 -10 2 0 4 5 4 10 0 6 -5 10 -11 10 -5 0
-7 -4 -4 -10z"/>
<path d="M4405 3247 c-39 -45 -45 -64 -45 -134 0 -39 -5 -84 -12 -100 -6 -15
-10 -35 -9 -43 5 -42 13 -57 33 -67 15 -6 212 -11 543 -12 432 -2 523 0 539
12 17 12 20 31 24 145 4 128 4 130 -19 145 -20 12 -94 16 -419 21 -395 6 -585
17 -604 36 -13 13 -18 12 -31 -3z"/>
<path d="M2540 3246 c0 -2 11 -6 25 -8 13 -3 22 -1 19 3 -5 9 -44 13 -44 5z"/>
<path d="M1215 3217 c-130 -10 -168 -10 -341 -6 -176 5 -169 12 -160 -156 3
-71 11 -134 16 -139 5 -5 227 -10 539 -11 464 -2 532 0 543 13 9 10 14 58 16
136 6 179 24 167 -268 170 -129 1 -284 -2 -345 -7z"/>
<path d="M2022 3221 c-89 -8 -91 -13 -88 -178 2 -159 -10 -147 143 -157 l102
-8 8 39 c16 76 -3 268 -29 301 -11 13 -30 13 -136 3z"/>
<path d="M4010 3180 c0 -5 5 -10 10 -10 6 0 10 5 10 10 0 6 -4 10 -10 10 -5 0
-10 -4 -10 -10z"/>
<path d="M4027 3153 c-4 -3 -7 -18 -6 -32 1 -26 1 -25 10 3 9 31 7 41 -4 29z"/>
<path d="M4087 3117 c-15 -24 -15 -26 7 -50 l24 -26 5 27 c3 15 0 37 -7 50
l-13 24 -16 -25z"/>
<path d="M4021 3077 c-1 -10 -5 -16 -10 -12 -13 7 -24 -12 -15 -26 4 -8 9 -7
16 2 7 10 8 5 4 -13 -5 -21 -3 -28 9 -28 17 0 20 41 5 75 -8 18 -9 18 -9 2z"/>
<path d="M4093 2909 c-7 -7 -13 -22 -13 -33 0 -19 1 -19 16 -4 9 8 14 23 12
32 -2 14 -5 15 -15 5z"/>
<path d="M3230 2877 c-14 -8 -44 -32 -66 -55 -38 -38 -67 -50 -107 -43 -4 1
-10 -6 -14 -15 -5 -12 -14 -7 -47 25 -22 22 -57 47 -77 55 -32 14 -38 14 -55
0 -11 -9 -14 -17 -9 -20 6 -2 26 -13 45 -24 19 -11 50 -27 68 -35 17 -9 32
-22 32 -30 0 -21 -30 -31 -41 -14 -7 11 -9 10 -9 -4 0 -10 -6 -17 -13 -15 -13
3 -17 -3 -17 -24 0 -10 2 -10 9 0 6 10 13 4 25 -22 9 -20 23 -36 31 -36 7 0
16 -6 19 -12 3 -10 8 -9 18 3 15 18 37 14 56 -10 12 -15 14 -15 23 1 6 11 19
15 46 13 21 -2 43 1 50 7 7 5 19 8 27 5 11 -4 14 1 13 20 -2 26 2 28 61 37 12
2 22 -1 22 -7 0 -6 2 -8 5 -5 12 12 -9 39 -26 35 -23 -6 -24 2 -5 28 15 21 10
49 -6 39 -14 -9 1 37 18 54 8 7 14 24 14 38 0 20 -5 24 -32 24 -18 0 -44 -6
-58 -13z"/>
<path d="M3430 2852 c0 -5 14 -21 30 -37 22 -21 30 -38 30 -64 0 -20 4 -31 8
-25 9 14 43 14 35 1 -4 -6 4 -7 22 -3 49 13 94 -34 114 -121 l9 -38 1 45 c1
51 -25 115 -60 146 -13 12 -54 40 -92 63 -65 39 -97 50 -97 33z"/>
<path d="M3335 2820 c-3 -5 -2 -10 4 -10 5 0 13 5 16 10 3 6 2 10 -4 10 -5 0
-13 -4 -16 -10z"/>
<path d="M2055 2799 c-33 -4 -249 -7 -479 -8 -332 0 -422 -3 -433 -13 -34 -34
-35 -268 -2 -289 8 -5 136 -10 284 -11 149 -1 365 -2 480 -3 133 -1 226 -6
254 -14 25 -7 60 -10 83 -6 l41 7 -6 66 c-3 43 -10 70 -21 77 -20 15 -66 114
-66 143 0 59 -18 65 -135 51z"/>
<path d="M3333 2778 c2 -7 13 -13 25 -13 28 0 37 -12 22 -30 -11 -13 -9 -15
14 -15 17 0 26 -5 26 -16 0 -8 5 -12 10 -9 18 11 11 32 -12 38 -12 4 -19 9
-15 13 9 9 -37 44 -58 44 -9 0 -15 -6 -12 -12z"/>
<path d="M3980 2779 c0 -5 5 -7 10 -4 6 3 10 8 10 11 0 2 -4 4 -10 4 -5 0 -10
-5 -10 -11z"/>
<path d="M3520 2640 c0 -6 7 -10 15 -10 8 0 15 2 15 4 0 2 -7 6 -15 10 -8 3
-15 1 -15 -4z"/>
<path d="M3490 2606 c-14 -8 -50 -17 -80 -20 -61 -8 -145 -22 -205 -36 -205
-47 -453 -70 -463 -42 -4 13 -99 17 -119 4 -7 -4 -11 -17 -11 -29 2 -17 5 -19
20 -9 14 8 23 8 38 -2 11 -6 28 -12 37 -12 10 0 32 -9 49 -19 47 -29 178 -41
359 -35 88 4 169 6 179 6 10 -1 32 6 47 14 16 8 32 13 36 12 4 -1 17 3 28 9
20 11 27 13 45 13 5 0 37 25 70 55 34 30 70 57 81 60 21 7 26 35 7 36 -7 0
-31 2 -53 4 -23 3 -51 -1 -65 -9z m-131 -72 c26 -5 31 -11 31 -34 0 -23 -5
-30 -30 -35 -19 -4 -36 -2 -45 5 -12 10 -16 8 -24 -13 -11 -27 -40 -39 -64
-26 -9 6 -18 5 -22 0 -3 -6 -53 -10 -110 -10 -88 0 -106 3 -114 17 -6 9 -11
12 -11 6 0 -15 -26 -25 -45 -18 -12 5 -23 43 -12 44 1 1 43 3 92 6 50 3 113
12 142 20 29 8 56 13 60 12 4 -1 18 4 31 11 13 7 30 10 37 7 8 -3 17 -1 20 4
7 12 21 12 64 4z"/>
<path d="M3050 2600 c0 -5 5 -10 10 -10 6 0 10 5 10 10 0 6 -4 10 -10 10 -5 0
-10 -4 -10 -10z"/>
<path d="M1687 2374 c-2 -2 -224 -5 -495 -6 -311 -2 -494 -7 -500 -13 -13 -14
-22 -168 -13 -233 4 -30 14 -57 21 -62 7 -5 65 -11 129 -15 64 -4 121 -12 128
-17 7 -6 14 -5 18 2 3 5 13 10 21 10 8 0 12 -4 9 -10 -3 -5 11 -2 32 7 42 17
172 12 184 -9 4 -6 12 -7 18 -3 26 15 85 19 314 19 l237 1 18 35 c13 27 17 58
16 143 -2 130 -13 149 -88 152 -25 1 -47 1 -49 -1z"/>
<path d="M3775 2260 c3 -5 8 -10 11 -10 2 0 4 5 4 10 0 6 -5 10 -11 10 -5 0
-7 -4 -4 -10z"/>
<path d="M3017 2226 c-8 -21 3 -27 19 -11 18 17 18 25 0 25 -8 0 -16 -6 -19
-14z"/>
<path d="M3100 2225 c0 -8 5 -15 10 -15 6 0 10 7 10 15 0 8 -4 15 -10 15 -5 0
-10 -7 -10 -15z"/>
<path d="M3130 2224 c0 -6 14 -11 30 -12 19 0 30 4 30 13 0 10 -10 13 -30 12
-16 -1 -30 -7 -30 -13z"/>
<path d="M3731 2204 c0 -11 3 -14 6 -6 3 7 2 16 -1 19 -3 4 -6 -2 -5 -13z"/>
<path d="M3426 1395 c4 -9 0 -15 -9 -15 -8 0 -17 -5 -19 -11 -2 -6 -22 -14
-43 -18 -31 -5 -41 -11 -43 -29 -2 -12 -8 -22 -13 -22 -6 0 -9 -13 -8 -28 2
-18 -4 -36 -14 -47 -24 -24 -35 -10 -12 15 14 15 15 20 4 20 -8 0 -19 -12 -26
-26 -10 -22 -9 -29 3 -41 12 -13 20 -13 40 -5 13 7 23 17 22 24 -2 6 10 14 26
17 21 4 30 12 31 29 1 15 -4 22 -17 22 -10 0 -18 5 -18 11 0 6 7 8 16 5 10 -4
25 1 36 11 11 10 23 17 27 16 3 -1 5 5 3 13 -2 8 4 14 12 14 9 0 20 9 26 20 8
15 6 21 -10 30 -16 9 -18 8 -14 -5z"/>
<path d="M3512 1390 c-12 -19 -11 -20 8 -8 20 13 27 28 12 28 -4 0 -13 -9 -20
-20z"/>
<path d="M3448 1253 c-14 -4 -33 -31 -26 -39 2 -1 16 9 31 22 28 24 27 26 -5
17z"/>
<path d="M3708 989 c-24 -14 -23 -28 2 -22 11 3 20 12 20 19 0 16 0 16 -22 3z"/>
</g>
</svg>
